<?xml version="1.0" encoding="UTF-8"?>
<svg version="1.1" xmlns="http://www.w3.org/2000/svg" width="578" height="600">
<path d="M0 0 C0.68906268 -0.00205263 1.37812536 -0.00410527 2.08806872 -0.0062201 C4.39009313 -0.011861 6.69205715 -0.01043647 8.99408722 -0.00901413 C10.66410786 -0.01159944 12.33412788 -0.01461307 14.00414705 -0.01801753 C18.58841448 -0.02607138 23.17266623 -0.0278762 27.75693989 -0.028615 C32.70330282 -0.03046839 37.64965768 -0.03801721 42.59601593 -0.04475021 C53.41031216 -0.05832302 64.22460468 -0.06435674 75.038908 -0.06876087 C81.79456282 -0.07152531 88.55021621 -0.07576306 95.30587006 -0.08026505 C114.01895559 -0.09245679 132.73203998 -0.102756 151.44512939 -0.10614014 C152.64246028 -0.1063597 153.83979117 -0.10657927 155.07340482 -0.10680549 C156.27356511 -0.10702377 157.47372541 -0.10724204 158.71025419 -0.10746694 C161.14214548 -0.1079104 163.57403676 -0.10835696 166.00592804 -0.10880661 C167.21222447 -0.10902804 168.4185209 -0.10924947 169.66137177 -0.10947761 C189.19911999 -0.11342397 208.73683088 -0.1308735 228.27456468 -0.15416613 C248.34501046 -0.17790022 268.41543751 -0.19034294 288.48589754 -0.19150805 C299.75007695 -0.19242371 311.01420773 -0.19814825 322.27837372 -0.21632767 C331.87190681 -0.23175648 341.46537623 -0.23683275 351.05891937 -0.22858956 C355.94986785 -0.2246928 360.84068822 -0.22556495 365.73162079 -0.23964691 C370.21762612 -0.25244436 374.70340785 -0.25113739 379.18941313 -0.2390562 C380.80386332 -0.23710926 382.41832968 -0.24013069 384.03275722 -0.24890056 C399.25218638 -0.32627598 412.76137488 1.93898832 426.83991241 8.13142776 C428.35198273 8.79465042 428.35198273 8.79465042 429.89459991 9.47127151 C453.22498695 20.40928414 470.40788418 40.30239134 479.43756866 64.17049026 C483.54492126 75.53425628 484.99637744 85.99009925 485.07819366 98.01424026 C485.08626541 99.1466716 485.09433716 100.27910294 485.1026535 101.44585037 C485.11643673 103.83109912 485.12718443 106.2163671 485.13507843 108.60164261 C485.14665168 111.04180551 485.1671865 113.48194207 485.19660187 115.92195511 C485.2391404 119.45289129 485.25542327 122.98308017 485.26569366 126.51424026 C485.28320175 127.60391098 485.30070984 128.6935817 485.31874847 129.81627274 C485.2970174 137.37876212 485.2970174 137.37876212 482.93048859 141.27547073 C479.88941666 143.97525221 478.01727205 144.97785912 473.96491241 145.50642776 C469.99503728 145.03004275 467.94454706 143.6010235 464.83991241 141.13142776 C462.24813871 137.2437672 462.52481189 133.94452806 462.49616241 129.43220901 C462.48153961 128.56436279 462.46691681 127.69651657 462.45185089 126.80237198 C462.40534185 124.01627163 462.37123822 121.23023756 462.33991241 118.44392776 C462.03703057 92.17009249 460.3471187 68.93010526 442.34381866 48.05720901 C440.83991241 46.13142776 440.83991241 46.13142776 440.83991241 44.13142776 C440.30237335 43.88908401 439.76483429 43.64674026 439.21100616 43.39705276 C436.23544188 41.80877793 433.63084487 39.86451588 430.90241241 37.88142776 C412.55092141 24.93876986 393.88789651 22.97306311 372.04665375 22.997715 C370.46463933 22.99584382 368.88262538 22.9935419 367.30061215 22.99084967 C362.97814515 22.98476313 358.65569758 22.98486154 354.33322728 22.98604405 C349.66162962 22.98624885 344.99003808 22.9807217 340.3184433 22.97598648 C331.17514211 22.96769666 322.03184738 22.9649324 312.88854275 22.9643741 C305.45282373 22.96389815 298.01710682 22.96183947 290.58138847 22.95867348 C269.47781673 22.94987148 248.37425006 22.94525339 227.27067647 22.94600395 C225.56580153 22.94606389 225.56580153 22.94606389 223.82648468 22.94612503 C222.68850609 22.94616591 221.5505275 22.94620679 220.37806471 22.94624891 C201.94056432 22.94665526 183.50308436 22.93708736 165.06558988 22.92298666 C146.11259494 22.90860664 127.15960996 22.90171737 108.20660943 22.90258044 C97.57460077 22.90291185 86.94261354 22.9001895 76.31060982 22.88940239 C67.25776019 22.88027598 58.2049417 22.87813969 49.15208945 22.88491181 C44.53847698 22.88816621 39.92492416 22.88827293 35.31131744 22.87955856 C31.07773194 22.87164464 26.84425293 22.8731744 22.61066987 22.8818427 C21.08918927 22.88336699 19.56770051 22.88160255 18.04622952 22.87598262 C-5.77200179 22.79391782 -26.65300251 26.60076683 -45.23430634 42.62752151 C-47.16008759 44.13142776 -47.16008759 44.13142776 -49.16008759 44.13142776 C-49.40243134 44.66896683 -49.64477509 45.20650589 -49.89446259 45.76033401 C-51.48273742 48.7358983 -53.42699947 51.34049531 -55.41008759 54.06892776 C-68.54995973 72.7000503 -70.31740959 91.60779897 -70.29380035 113.75989151 C-70.29567122 115.4326515 -70.29797302 117.10541106 -70.30066568 118.77816993 C-70.30675598 123.35147126 -70.30665336 127.92475423 -70.3054713 132.49805868 C-70.30526659 137.43959734 -70.31079274 142.38113022 -70.31552887 147.32266617 C-70.32382075 156.99536359 -70.32658305 166.66805492 -70.32714125 176.3407556 C-70.3276171 184.2064899 -70.32967529 192.07222219 -70.33284187 199.93795586 C-70.34164442 222.25895317 -70.34626187 244.57994567 -70.3455114 266.90094473 C-70.34545146 268.70439052 -70.34545146 268.70439052 -70.34539032 270.54426956 C-70.34534944 271.74804168 -70.34530856 272.95181379 -70.34526644 274.19206385 C-70.34486007 293.69654062 -70.35442832 313.20099808 -70.36852869 332.70546927 C-70.38290633 352.75231614 -70.38979811 372.79915359 -70.38893491 392.84600574 C-70.38860342 404.09281881 -70.39132935 415.33961164 -70.40211296 426.58642006 C-70.41123623 436.16261774 -70.41337822 445.73878598 -70.40660354 455.31498613 C-70.40334757 460.19593259 -70.40324817 465.07682264 -70.41195679 469.95776367 C-70.41986366 474.43560304 -70.41834798 478.91334167 -70.40967266 483.3911787 C-70.40814684 485.00148777 -70.40991872 486.61180451 -70.41553273 488.22210451 C-70.49351039 512.19815499 -66.87223463 533.413929 -50.66399384 552.20564651 C-49.16008759 554.13142776 -49.16008759 554.13142776 -49.16008759 556.13142776 C-48.62254852 556.37377151 -48.08500946 556.61611526 -47.53118134 556.86580276 C-44.55561705 558.4540776 -41.95102004 560.39833965 -39.22258759 562.38142776 C-20.87109658 575.32408567 -2.20807168 577.28979242 19.63317108 577.26514053 C21.2151855 577.26701171 22.79719945 577.26931363 24.37921268 577.27200586 C28.70167968 577.2780924 33.02412725 577.27799399 37.34659755 577.27681148 C42.01819521 577.27660667 46.68978675 577.28213383 51.36138153 577.28686905 C60.50468272 577.29515887 69.64797745 577.29792313 78.79128208 577.29848143 C86.2270011 577.29895738 93.662718 577.30101606 101.09843636 577.30418205 C122.2020081 577.31298405 143.30557477 577.31760214 164.40914836 577.31685158 C166.11402329 577.31679164 166.11402329 577.31679164 167.85334015 577.3167305 C169.56030803 577.31666918 169.56030803 577.31666918 171.30176011 577.31660662 C189.73926051 577.31620027 208.17674046 577.32576817 226.61423495 577.33986887 C245.56722989 577.35424889 264.52021487 577.36113816 283.4732154 577.36027509 C294.10522406 577.35994368 304.73721129 577.36266603 315.36921501 577.37345314 C324.42206464 577.38257955 333.47488313 577.38471584 342.52773537 577.37794372 C347.14134785 577.37468932 351.75490066 577.3745826 356.36850739 577.38329697 C360.60209289 577.39121089 364.8355719 577.38968113 369.06915496 577.38101283 C370.59063556 577.37948854 372.11212432 577.38125298 373.63359531 577.38687291 C397.45182662 577.46893771 418.33282734 573.6620887 436.91413116 557.63533401 C438.83991241 556.13142776 438.83991241 556.13142776 440.83991241 556.13142776 C441.08225616 555.5938887 441.32459991 555.05634964 441.57428741 554.50252151 C443.16256225 551.52695723 445.1068243 548.92236022 447.08991241 546.19392776 C458.68026526 529.75988018 461.77764121 512.96729332 462.01569366 493.26424026 C462.02770309 492.37574387 462.03971252 491.48724747 462.05208588 490.57182693 C462.10079655 486.85502219 462.14823418 483.13856787 462.16584015 479.42146683 C462.18129734 476.68102622 462.22143139 473.94184713 462.26569366 471.20174026 C462.26378525 470.36522934 462.26187683 469.52871841 462.25991058 468.66685867 C462.36718667 463.56051704 463.00558524 460.84386606 466.83991241 457.13142776 C470.10925519 454.84288782 472.90972761 454.65980559 476.83991241 455.13142776 C480.49773422 457.17136685 482.50937416 458.63562038 484.83991241 462.13142776 C485.10060883 464.36537552 485.10060883 464.36537552 485.11457062 467.00740433 C485.12410263 467.99984146 485.13363464 468.99227859 485.14345551 470.01478958 C485.1425441 471.08968643 485.14163269 472.16458328 485.14069366 473.27205276 C485.14712135 474.94361435 485.14712135 474.94361435 485.15367889 476.64894485 C485.15943034 479.0161458 485.15991649 481.38336442 485.15558624 483.75056839 C485.15246108 487.32575835 485.1757537 490.9000923 485.20124054 494.47517776 C485.24969777 511.69106101 483.84838035 526.19764596 476.83991241 542.13142776 C476.17668976 543.64349808 476.17668976 543.64349808 475.50006866 545.18611526 C464.56205604 568.5165023 444.66894884 585.69939953 420.80084991 594.72908401 C411.18862865 598.20335319 401.94703371 600.25238714 391.67982483 600.26285553 C390.64623081 600.26593448 390.64623081 600.26593448 389.59175611 600.26907563 C387.2897317 600.27471653 384.98776768 600.273292 382.68573761 600.27186966 C381.01571697 600.27445497 379.34569695 600.2774686 377.67567778 600.28087306 C373.09141035 600.28892691 368.5071586 600.29073173 363.92288494 600.29147053 C358.97652201 600.29332392 354.03016715 600.30087274 349.0838089 600.30760574 C338.26951267 600.32117855 327.45522015 600.32721227 316.64091682 600.3316164 C309.88526201 600.33438084 303.12960862 600.33861859 296.37395477 600.34312057 C277.66086924 600.35531232 258.94778485 600.36561153 240.23469543 600.36899567 C239.03736454 600.36921523 237.84003365 600.3694348 236.60642001 600.36966102 C235.40625972 600.3698793 234.20609942 600.37009757 232.96957064 600.37032247 C230.53767935 600.37076593 228.10578807 600.37121249 225.67389679 600.37166214 C224.46760036 600.37188357 223.26130393 600.372105 222.01845306 600.37233314 C202.48070484 600.3762795 182.94299395 600.39372903 163.40526015 600.41702166 C143.33481437 600.44075575 123.26438732 600.45319847 103.19392729 600.45436358 C91.92974788 600.45527923 80.6656171 600.46100378 69.40145111 600.4791832 C59.80791802 600.49461201 50.2144486 600.49968828 40.62090546 600.49144509 C35.72995698 600.48754832 30.83913661 600.48842048 25.94820404 600.50250244 C21.46219871 600.51529989 16.97641698 600.51399292 12.4904117 600.50191173 C10.87596151 600.49996479 9.26149515 600.50298622 7.64706761 600.51175609 C-7.57236155 600.58913151 -21.08155005 598.32386721 -35.16008759 592.13142776 C-36.16813446 591.68927933 -37.17618134 591.24713089 -38.21477509 590.79158401 C-61.54516212 579.85357139 -78.72805935 559.96046419 -87.75774384 536.09236526 C-91.27968369 526.34825408 -93.28145577 517.03335156 -93.29151535 506.62775803 C-93.29356798 505.90155113 -93.29562062 505.17534423 -93.29773545 504.42713106 C-93.30338054 501.99875274 -93.30195129 499.57043158 -93.30052948 497.14204788 C-93.30311455 495.38128167 -93.30612811 493.62051604 -93.30953288 491.85975122 C-93.31758956 487.02464934 -93.31939171 482.18956232 -93.32013035 477.35445452 C-93.32198324 472.13815063 -93.32953181 466.92185441 -93.33626556 461.70555496 C-93.34984033 450.30036843 -93.35587238 438.89518541 -93.36027622 427.48999214 C-93.3630403 420.365816 -93.36727798 413.2416412 -93.3717804 406.11746597 C-93.38397234 386.3852713 -93.39427155 366.65307772 -93.39765549 346.92087936 C-93.39787505 345.65826103 -93.39809462 344.39564269 -93.39832084 343.09476319 C-93.39853912 341.82915404 -93.39875739 340.56354489 -93.39898229 339.25958395 C-93.39942575 336.69505533 -93.39987231 334.1305267 -93.40032196 331.56599808 C-93.40054339 330.29390812 -93.40076482 329.02181817 -93.40099296 327.71118003 C-93.40493957 307.10645584 -93.42238976 286.50176704 -93.44568148 265.89705652 C-93.46941225 244.73275882 -93.48185814 223.56847887 -93.48302341 202.40416765 C-93.48393924 190.52518441 -93.48966836 178.64624728 -93.50784302 166.76727676 C-93.52326733 156.65039603 -93.52835073 146.53357566 -93.52010491 136.4166854 C-93.51620658 131.25840424 -93.51708806 126.10024456 -93.53116226 120.94197845 C-93.54395016 116.21172111 -93.54266096 111.48167591 -93.53057155 106.75141865 C-93.52862298 105.04814009 -93.53165373 103.34484624 -93.54041591 101.64158911 C-93.61504942 86.14152541 -91.47191487 72.48139407 -85.16008759 58.13142776 C-84.71793915 57.12338089 -84.27579071 56.11533401 -83.82024384 55.07674026 C-72.88223121 31.74635323 -52.98912401 14.563456 -29.12102509 5.53377151 C-19.50880382 2.05950234 -10.26720888 0.01046839 0 0 Z " fill="#83D8C7" transform="translate(93.16008758544922,-0.13142776489257813)"/>
<path d="M0 0 C0.9420932 -0.00525696 1.8841864 -0.01051392 2.85482788 -0.01593018 C5.97524531 -0.0291502 9.09515334 -0.02037707 12.21557617 -0.01025391 C14.39353025 -0.01227592 16.57148366 -0.01518842 18.74943542 -0.01895142 C23.32341939 -0.02337903 27.89722784 -0.01693643 32.47119141 -0.00292969 C38.29671604 0.01405081 44.12182259 0.00439482 49.94733143 -0.01364708 C54.45245927 -0.02456873 58.95749069 -0.02099853 63.46262169 -0.0132637 C65.60773456 -0.01127894 67.75285653 -0.01365952 69.89795876 -0.02070236 C99.84921304 -0.09737189 99.84921304 -0.09737189 113.07104492 7.13818359 C114.07071289 7.66424194 114.07071289 7.66424194 115.09057617 8.20092773 C132.04618106 17.35422759 143.15399163 31.97065296 148.69604492 50.38818359 C154.88632296 71.34563094 151.35126543 94.48994273 141.32885742 113.60302734 C132.49214348 128.67617815 118.60221778 140.27951199 101.76608276 145.25386047 C91.43328071 147.70046425 81.51986193 147.77574586 70.95385742 147.68115234 C69.09056951 147.67554305 67.22727711 147.67127928 65.36398315 147.66828918 C60.50770414 147.65694521 55.65170298 147.62757057 50.79553223 147.59417725 C45.82100175 147.56324847 40.8464255 147.54973557 35.87182617 147.53466797 C26.14644503 147.50268874 16.42126826 147.4516221 6.69604492 147.38818359 C6.70270676 148.61513947 6.70936859 149.84209534 6.7162323 151.10623169 C6.77705718 162.67122471 6.82202427 174.23618525 6.85148144 185.80130196 C6.86713478 191.74699701 6.8883673 197.69256288 6.92236328 203.63818359 C6.9549681 209.37643579 6.97290043 215.11456377 6.98067665 220.85290146 C6.9862181 223.04175649 6.99703917 225.23060476 7.01323509 227.41940689 C7.03502392 230.48613407 7.03801119 233.55234845 7.03662109 236.61914062 C7.04740692 237.52329208 7.05819275 238.42744354 7.06930542 239.35899353 C7.0443657 244.44642274 6.57214666 248.00328577 3.69604492 252.38818359 C0.32809367 254.81624147 -2.28308317 255.64243128 -6.36645508 255.38818359 C-10.56683692 254.67202654 -12.6335051 252.70601539 -15.30395508 249.38818359 C-17.03480486 245.92648403 -16.44798319 241.91856945 -16.44439697 238.10795593 C-16.44736809 237.1338059 -16.45033922 236.15965586 -16.45340037 235.15598613 C-16.46211604 231.87099067 -16.46359804 228.58603152 -16.46508789 225.30102539 C-16.46971403 222.95419232 -16.47473841 220.60736 -16.48013306 218.26052856 C-16.49465054 211.20306418 -16.5006439 204.14560758 -16.50552857 197.08813092 C-16.50810482 193.76596043 -16.51192288 190.44379145 -16.51564789 187.12162209 C-16.52784206 176.08034638 -16.5381409 165.03907263 -16.54152298 153.99779034 C-16.54174255 153.2908593 -16.54196211 152.58392826 -16.54218833 151.85557507 C-16.54240661 151.146936 -16.54262489 150.43829693 -16.54284978 149.70818394 C-16.54329325 148.27217146 -16.54373981 146.83615897 -16.54418945 145.40014648 C-16.54441088 144.68783211 -16.54463231 143.97551773 -16.54486045 143.24161807 C-16.5488086 131.69911089 -16.56626246 120.15666684 -16.58954898 108.61418404 C-16.61325523 96.76817407 -16.62572451 84.92219577 -16.6268909 73.07616168 C-16.6278081 66.42325304 -16.63388929 59.77041709 -16.65171051 53.11752892 C-16.66814424 46.86066519 -16.67036954 40.6039578 -16.6615715 34.34708023 C-16.66079861 32.04805522 -16.66517685 29.74902196 -16.67502975 27.45001793 C-16.6876745 24.31627787 -16.68191298 21.18309778 -16.67144775 18.04936218 C-16.67950416 17.13535399 -16.68756056 16.22134579 -16.6958611 15.27964038 C-16.64990353 9.41274017 -15.70130634 6.05756616 -11.69795227 1.59994507 C-7.9066503 -0.31908545 -4.18985707 -0.02866005 0 0 Z M6.69604492 22.38818359 C6.69604492 56.37818359 6.69604492 90.36818359 6.69604492 125.38818359 C26.21760742 125.45005859 26.21760742 125.45005859 46.13354492 125.51318359 C50.22817139 125.5313916 54.32279785 125.54959961 58.54150391 125.56835938 C62.24298691 125.57505223 62.24298691 125.57505223 65.94447327 125.57907104 C67.58075552 125.58212273 69.21703355 125.58911607 70.85328674 125.59933472 C87.63552828 125.69881499 100.68222415 123.96561093 113.36791992 111.97802734 C125.72968565 98.22660003 127.49788723 82.03291241 126.69604492 64.38818359 C126.35000911 61.22129885 125.73003705 58.39616069 124.69604492 55.38818359 C124.29385742 54.18162109 124.29385742 54.18162109 123.88354492 52.95068359 C119.67617714 41.450545 113.14714209 33.07242659 102.32104492 27.07177734 C90.11310573 21.63040971 76.23135537 22.10276766 63.14135742 22.19287109 C61.68619949 22.19582191 60.2310394 22.19785593 58.77587891 22.19897461 C53.45756795 22.20934169 48.13930282 22.23726325 42.82104492 22.26318359 C24.93916992 22.32505859 24.93916992 22.32505859 6.69604492 22.38818359 Z " fill="#F46E4C" transform="translate(343.303955078125,179.61181640625)"/>
<path d="M0 0 C3.8026029 2.0050088 5.61790841 3.42686262 8 7 C8.19004936 9.9987182 8.26066568 12.90379851 8.24050903 15.90263367 C8.24221788 16.82399622 8.24392673 17.74535878 8.24568737 18.69464141 C8.24899251 21.79479671 8.23796167 24.89473755 8.22705078 27.99487305 C8.22648689 30.21203608 8.2268028 32.42919949 8.22793579 34.6463623 C8.22851116 40.67701657 8.21672704 46.70759177 8.20278788 52.73822761 C8.1903112 59.03632189 8.18911244 65.33441785 8.18673706 71.63252258 C8.18122102 82.20725858 8.16871655 92.78196857 8.15087891 103.35668945 C8.13252419 114.2492661 8.11836569 125.14183484 8.10986328 136.03442383 C8.10933783 136.70570966 8.10881239 137.3769955 8.10827102 138.06862333 C8.10566097 141.43622741 8.10313354 144.80383154 8.10064721 148.17143571 C8.07972485 176.11431075 8.04453143 204.05715333 8 232 C8.61291712 231.99723462 9.22583424 231.99446924 9.8573246 231.99162006 C24.78061695 231.92532652 39.70389507 231.87570302 54.62729836 231.84456348 C61.84419676 231.82910382 69.06099678 231.80803162 76.27783203 231.77368164 C82.56906017 231.74375159 88.86021705 231.72441845 95.15151441 231.71773452 C98.48181412 231.71382831 101.81186281 231.70308694 105.14210892 231.68280983 C108.86260349 231.66105605 112.58267479 231.65803231 116.30322266 231.65942383 C117.40373962 231.648638 118.50425659 231.63785217 119.63812256 231.6267395 C125.1587278 231.64910506 129.27325244 231.79028974 134 235 C136.7757888 238.92300787 136.66886845 243.37572429 136 248 C133.63189731 252.12225283 131.43289238 253.54613486 127 255 C124.32720375 255.25447559 124.32720375 255.25447559 121.39663696 255.26069641 C120.28079727 255.26778122 119.16495758 255.27486603 118.01530457 255.28216553 C116.80063004 255.27968811 115.58595551 255.27721069 114.33447266 255.2746582 C113.04776169 255.27976913 111.76105072 255.28488007 110.43534851 255.29014587 C106.91253067 255.30351694 103.38982025 255.30411659 99.86698198 255.30158257 C96.92226819 255.30051142 93.977576 255.30540001 91.03286684 255.310188 C84.08309265 255.32127698 77.1333725 255.32172425 70.18359375 255.31567383 C63.02344268 255.3096359 55.86348822 255.32194174 48.70337069 255.3432439 C42.54778469 255.36088142 36.39226115 255.36685781 30.23665082 255.36360615 C26.56382677 255.36179632 22.89114292 255.3643992 19.21834183 255.37832069 C15.12020433 255.3932735 11.02246477 255.38391016 6.92431641 255.37231445 C5.1083773 255.38378006 5.1083773 255.38378006 3.25575256 255.39547729 C-2.87391789 255.35713916 -7.71954154 255.28084778 -13 252 C-16.75160941 247.44855878 -16.42215744 242.9743459 -16.38095093 237.35900879 C-16.3856309 236.38229548 -16.39031087 235.40558217 -16.39513266 234.39927149 C-16.40710742 231.12346512 -16.39761554 227.84807517 -16.38818359 224.57226562 C-16.39224818 222.22498836 -16.39758942 219.877713 -16.40411377 217.53044128 C-16.4178065 211.15245828 -16.41248056 204.77462064 -16.40297651 198.39663506 C-16.39615877 192.40294539 -16.40135854 186.40926914 -16.4057581 180.41557986 C-16.41431218 167.8211135 -16.40447759 155.22671266 -16.388357 142.63225704 C-16.37495378 131.82625704 -16.37728187 121.02035373 -16.39111328 110.21435547 C-16.40716879 97.66487648 -16.41348821 85.11545491 -16.40427649 72.56596708 C-16.3995329 65.92317562 -16.39898732 59.28043807 -16.40888596 52.63764954 C-16.41754098 46.39303763 -16.41156031 40.14860861 -16.39420319 33.90401649 C-16.39023054 31.60983395 -16.39138563 29.31563606 -16.39799118 27.02145958 C-16.40616581 23.89442777 -16.39593408 20.76798528 -16.38095093 17.64099121 C-16.38764309 16.72902937 -16.39433526 15.81706754 -16.40123022 14.87747049 C-16.34648138 9.00313482 -15.3774953 5.65182168 -11.375 1.1875 C-7.63517523 -0.68241239 -4.09245951 -0.65252387 0 0 Z " fill="#F46E4C" transform="translate(150,180)"/>
</svg>
